<svg xmlns="http://www.w3.org/2000/svg" width="1600" height="900" viewBox="0 0 1600 900" font-family="'Inter','Segoe UI',system-ui,sans-serif">
  <defs>
    <linearGradient id="bg3" x1="0" y1="0" x2="1" y2="1">
      <stop offset="0" stop-color="#0a0d10"/><stop offset="1" stop-color="#0f141a"/>
    </linearGradient>
  </defs>
  <rect width="1600" height="900" fill="url(#bg3)"/>

  <rect x="0" y="0" width="1600" height="72" fill="#10151b"/>
  <rect x="30" y="24" width="22" height="24" rx="3" fill="#d9843f"/>
  <rect x="35" y="30" width="12" height="2" fill="#0a0d10"/><rect x="35" y="35" width="12" height="2" fill="#0a0d10"/><rect x="35" y="40" width="8" height="2" fill="#0a0d10"/>
  <text x="66" y="42" fill="#f4efe6" font-size="22" font-weight="600">RiskLedger</text>
  <text x="216" y="42" fill="#7f8b95" font-size="15">AI Use Case Registry &amp; Risk Tiering</text>
  <rect x="1284" y="20" width="140" height="32" rx="8" fill="#d9843f"/>
  <text x="1354" y="41" fill="#0a0d10" font-size="13" font-weight="600" text-anchor="middle">+ Register use case</text>

  <!-- risk tier stat tiles -->
  <rect x="30" y="100" width="288" height="112" rx="14" fill="#12181f"/>
  <text x="54" y="134" fill="#7f8b95" font-size="13">TOTAL REGISTERED</text>
  <text x="54" y="180" fill="#f4efe6" font-size="38" font-weight="700">41</text>

  <rect x="338" y="100" width="288" height="112" rx="14" fill="#12181f"/>
  <text x="362" y="134" fill="#7f8b95" font-size="13">HIGH RISK TIER</text>
  <text x="362" y="180" fill="#e66767" font-size="38" font-weight="700">6</text>

  <rect x="646" y="100" width="288" height="112" rx="14" fill="#12181f"/>
  <text x="670" y="134" fill="#7f8b95" font-size="13">PENDING REVIEW</text>
  <text x="670" y="180" fill="#c98500" font-size="38" font-weight="700">9</text>

  <rect x="954" y="100" width="288" height="112" rx="14" fill="#12181f"/>
  <text x="978" y="134" fill="#7f8b95" font-size="13">AUDIT-READY</text>
  <text x="978" y="180" fill="#3ea36a" font-size="38" font-weight="700">32</text>

  <rect x="1262" y="100" width="308" height="112" rx="14" fill="#12181f"/>
  <text x="1286" y="134" fill="#7f8b95" font-size="13">NEXT REVIEW DUE</text>
  <text x="1286" y="176" fill="#f4efe6" font-size="24" font-weight="700">4 days</text>

  <!-- risk distribution bar -->
  <rect x="30" y="238" width="1540" height="90" rx="14" fill="#12181f"/>
  <text x="54" y="270" fill="#f4efe6" font-size="15" font-weight="600">Risk tier distribution</text>
  <rect x="54" y="286" width="1492" height="20" rx="10" fill="#1e262f"/>
  <rect x="54" y="286" width="900" height="20" rx="10" fill="#3ea36a"/>
  <rect x="954" y="286" width="420" height="20" fill="#c98500"/>
  <rect x="1374" y="286" width="172" height="20" rx="10" fill="#e66767"/>
  <text x="504" y="330" fill="#7f8b95" font-size="12" text-anchor="middle">Minimal / Limited — 22</text>
  <text x="1164" y="330" fill="#7f8b95" font-size="12" text-anchor="middle">High — 13</text>
  <text x="1460" y="330" fill="#7f8b95" font-size="12" text-anchor="middle">Unacceptable — 6</text>

  <!-- registry table -->
  <rect x="30" y="352" width="1540" height="512" rx="14" fill="#12181f"/>
  <text x="54" y="392" fill="#f4efe6" font-size="17" font-weight="600">Use case registry</text>
  <text x="54" y="414" fill="#7f8b95" font-size="12">mapped to NIST AI RMF &amp; EU AI Act categories</text>
  <g font-size="12" fill="#6b757e">
    <text x="54" y="446">USE CASE</text>
    <text x="480" y="446">OWNER</text>
    <text x="660" y="446">DATA SENSITIVITY</text>
    <text x="900" y="446">RISK TIER</text>
    <text x="1080" y="446">STATUS</text>
    <text x="1300" y="446">LAST REVIEWED</text>
  </g>
  <line x1="54" y1="460" x2="1546" y2="460" stroke="#1e262f"/>

  <g font-size="14" fill="#c9d2da">
    <text x="54" y="496">Support ticket triage copilot</text>
    <text x="480" y="496" fill="#8b96a0">Support Eng</text>
    <text x="660" y="496" fill="#8b96a0">Customer PII</text>
    <rect x="900" y="480" width="66" height="22" rx="11" fill="#332a14"/><text x="933" y="495" fill="#c98500" font-size="11" text-anchor="middle">High</text>
    <rect x="1080" y="480" width="90" height="22" rx="11" fill="#173226"/><text x="1125" y="495" fill="#5fb98e" font-size="11" text-anchor="middle">Approved</text>
    <text x="1300" y="496" fill="#8b96a0">3 days ago</text>

    <text x="54" y="538">Marketing copy generator</text>
    <text x="480" y="538" fill="#8b96a0">Growth</text>
    <text x="660" y="538" fill="#8b96a0">None</text>
    <rect x="900" y="522" width="90" height="22" rx="11" fill="#173226"/><text x="945" y="537" fill="#5fb98e" font-size="11" text-anchor="middle">Minimal</text>
    <rect x="1080" y="522" width="90" height="22" rx="11" fill="#173226"/><text x="1125" y="537" fill="#5fb98e" font-size="11" text-anchor="middle">Approved</text>
    <text x="1300" y="538" fill="#8b96a0">11 days ago</text>

    <text x="54" y="580">Resume screening assistant</text>
    <text x="480" y="580" fill="#8b96a0">People Ops</text>
    <text x="660" y="580" fill="#8b96a0">Candidate PII</text>
    <rect x="900" y="564" width="96" height="22" rx="11" fill="#331a1a"/><text x="948" y="579" fill="#e66767" font-size="11" text-anchor="middle">Unacceptable</text>
    <rect x="1080" y="564" width="86" height="22" rx="11" fill="#1c2733"/><text x="1123" y="579" fill="#5b6ee1" font-size="11" text-anchor="middle">In review</text>
    <text x="1300" y="580" fill="#8b96a0">Today</text>

    <text x="54" y="622">Internal search assistant</text>
    <text x="480" y="622" fill="#8b96a0">Platform</text>
    <text x="660" y="622" fill="#8b96a0">Internal docs</text>
    <rect x="900" y="606" width="66" height="22" rx="11" fill="#332a14"/><text x="933" y="621" fill="#c98500" font-size="11" text-anchor="middle">High</text>
    <rect x="1080" y="606" width="90" height="22" rx="11" fill="#173226"/><text x="1125" y="621" fill="#5fb98e" font-size="11" text-anchor="middle">Approved</text>
    <text x="1300" y="622" fill="#8b96a0">6 days ago</text>

    <text x="54" y="664">Sales call summarizer</text>
    <text x="480" y="664" fill="#8b96a0">Revenue Ops</text>
    <text x="660" y="664" fill="#8b96a0">Prospect data</text>
    <rect x="900" y="648" width="90" height="22" rx="11" fill="#173226"/><text x="945" y="663" fill="#5fb98e" font-size="11" text-anchor="middle">Minimal</text>
    <rect x="1080" y="648" width="90" height="22" rx="11" fill="#173226"/><text x="1125" y="663" fill="#5fb98e" font-size="11" text-anchor="middle">Approved</text>
    <text x="1300" y="664" fill="#8b96a0">2 weeks ago</text>

    <text x="54" y="706">Credit risk pre-screen model</text>
    <text x="480" y="706" fill="#8b96a0">Risk</text>
    <text x="660" y="706" fill="#8b96a0">Financial PII</text>
    <rect x="900" y="690" width="96" height="22" rx="11" fill="#331a1a"/><text x="948" y="705" fill="#e66767" font-size="11" text-anchor="middle">Unacceptable</text>
    <rect x="1080" y="690" width="86" height="22" rx="11" fill="#1c2733"/><text x="1123" y="705" fill="#5b6ee1" font-size="11" text-anchor="middle">In review</text>
    <text x="1300" y="706" fill="#8b96a0">Today</text>
  </g>
</svg>
